<svg xmlns="http://www.w3.org/2000/svg" viewBox="0 0 72.37 84.33"><defs><style>.cls-1{fill:#8d5210;}.cls-2{fill:#ffd57f;}.cls-3{fill:#e5a162;}.cls-4{fill:#8e5311;}</style></defs><g id="Layer_2" data-name="Layer 2"><g id="icon"><path class="cls-1" d="M1.92,28.93V59.24a8,8,0,0,0,4,6.94L32.18,81.33a8,8,0,0,0,8,0L66.44,66.18a8,8,0,0,0,4-6.94V28.93a8,8,0,0,0-4-6.93L40.19,6.84a8,8,0,0,0-8,0L5.93,22A8,8,0,0,0,1.92,28.93Z"/><path class="cls-1" d="M36.18,84.33a10,10,0,0,1-5-1.33L5,67.84a9.93,9.93,0,0,1-5-8.6V28.93a10,10,0,0,1,5-8.6L31.22,5.17a10,10,0,0,1,9.93,0L67.4,20.33a10,10,0,0,1,5,8.6V59.24a10,10,0,0,1-5,8.6L41.15,83A10,10,0,0,1,36.18,84.33Zm0-76.64a6,6,0,0,0-3,.82L6.89,23.66a6.1,6.1,0,0,0-3,5.27V59.24a6.09,6.09,0,0,0,3,5.27L33.14,79.67a6.11,6.11,0,0,0,6.08,0L65.48,64.51a6.11,6.11,0,0,0,3-5.27V28.93a6.12,6.12,0,0,0-3-5.27L39.22,8.51A6,6,0,0,0,36.18,7.69Z"/><path class="cls-2" d="M1.92,25.08V55.4a8,8,0,0,0,4,6.93L32.18,77.49a8,8,0,0,0,8,0L66.44,62.33a8,8,0,0,0,4-6.93V25.08a8,8,0,0,0-4-6.93L40.19,3a8,8,0,0,0-8,0L5.93,18.15A8,8,0,0,0,1.92,25.08Z"/><path class="cls-3" d="M36.18,80.48a9.87,9.87,0,0,1-5-1.33L5,64a10,10,0,0,1-5-8.6V25.08a10,10,0,0,1,5-8.6L31.22,1.33a10,10,0,0,1,9.93,0L67.4,16.48a10,10,0,0,1,5,8.6V55.4a10,10,0,0,1-5,8.6L41.15,79.15A9.88,9.88,0,0,1,36.18,80.48Zm0-76.63a6.1,6.1,0,0,0-3,.81L6.89,19.82a6.08,6.08,0,0,0-3,5.26V55.4a6.11,6.11,0,0,0,3,5.27L33.14,75.82a6.06,6.06,0,0,0,6.08,0L65.48,60.67a6.13,6.13,0,0,0,3-5.27V25.08a6.1,6.1,0,0,0-3-5.26L39.22,4.66A6.07,6.07,0,0,0,36.18,3.85Z"/><path class="cls-4" d="M52.77,26.29c.19-.88-.14-1.37-1.17-1.75s-1.11-.81-.62-1.68c1.1-1.94.22-3.83-2-4.68l-.13.67a4.22,4.22,0,0,0-4.09-1.05l.35.44a12.49,12.49,0,0,0-2.21,0,2.86,2.86,0,0,0-1.79,1.28,11.82,11.82,0,0,1,1.43.63c.43.26.41.55,0,.87s-.74.57-1.1.87a1.09,1.09,0,0,0-.35,1.25l2-.41.09.17a2.37,2.37,0,0,1-.38.66,11.28,11.28,0,0,0-2.91,5.67,15.71,15.71,0,0,1-1.51,4.45,3.63,3.63,0,0,1-1.14,1.28A20.92,20.92,0,0,1,34.79,36c-.81-.4-1.56-.82-2.35-1.14a.83.83,0,0,1-.55-.54c-.42-1.11-.85-2.21-1.32-3.28a12.38,12.38,0,0,0-6.67-6.76A7.08,7.08,0,0,0,18.48,24c-.85.32-1,.53-.68,1.39-.56.2-1.3.22-1.41,1s.57.87,1,1.19a3.42,3.42,0,0,0-.87.29c-.29.2-.67.49-.7.77a1.31,1.31,0,0,0,.51.9,6.68,6.68,0,0,0,1.21.66c-.83.89-.66,1.31.71,2.1a4.15,4.15,0,0,0,.39,1,4.38,4.38,0,0,0,.89.7,2.13,2.13,0,0,0-.58.15,6.22,6.22,0,0,0-1.5.83c-.57.52-.34,1.18.4,1.4.3.08.62.13,1,.21-.28.22-.54.38-.75.58a3.18,3.18,0,0,0-.57.69c-.4.67-.2,1.14.54,1.37.31.1.64.17,1,.26-1.25,1.44-1,1.9,1.13,2.33a4.1,4.1,0,0,0-.35,1.66c.15.7,1,.55,1.55.7-.49.85-.47.94.27,1.4-.36,1.51-.06,1.87,1.5,1.81l1.41-.08a14.55,14.55,0,0,0-.65,1.6c-.18.72.31,1.18,1,1,.36-.08.7-.24,1.08-.36.36.59.9.55,1.48.4.17,0,.41-.12.52,0a2,2,0,0,0,1.89.08.55.55,0,0,1,.73.2c.36.5.72,1,1.06,1.52A22.22,22.22,0,0,0,33.91,55a4.64,4.64,0,0,1,1.28,2.39c0,.09.05.17.08.27.24,1,.47,1.91.72,2.9h-.52a1.24,1.24,0,0,0-1.19,1.76c.17.46.46.55.91.33a2.28,2.28,0,0,1,.9-.27c1.38,0,2.77,0,4.16,0a4.49,4.49,0,0,1,1.38.33.58.58,0,0,0,.88-.44,1.26,1.26,0,0,0-1.22-1.59c-.63,0-1.27,0-1.91,0-.85,0-1.14-.22-1.33-1.06-.27-1.17-.52-2.34-.76-3.51a.47.47,0,0,1,.12-.42,11.81,11.81,0,0,0,2.64-3,11.78,11.78,0,0,1,1.62-2,54.64,54.64,0,0,0,8.45-9.46,9.64,9.64,0,0,0,1.32-9.39c-.07-.21-.11-.43-.16-.63a2,2,0,0,0,1.2-2.5,5.81,5.81,0,0,0-.82-1.45,13.57,13.57,0,0,0-.87-1.13L50.9,26Z"/></g></g></svg>