<svg xmlns="http://www.w3.org/2000/svg" viewBox="0 0 72.37 84.33"><defs><style>.cls-1{fill:#8d5210;}.cls-2{fill:#ffd57f;}.cls-3{fill:#e5a162;}.cls-4{fill:#8e5311;}</style></defs><g id="Layer_2" data-name="Layer 2"><g id="icon"><path class="cls-1" d="M1.92,28.93V59.24a8,8,0,0,0,4,6.94L32.18,81.33a8,8,0,0,0,8,0L66.44,66.18a8,8,0,0,0,4-6.94V28.93a8,8,0,0,0-4-6.93L40.19,6.84a8,8,0,0,0-8,0L5.93,22A8,8,0,0,0,1.92,28.93Z"/><path class="cls-1" d="M36.18,84.33a10,10,0,0,1-5-1.33L5,67.84a9.93,9.93,0,0,1-5-8.6V28.93a10,10,0,0,1,5-8.6L31.22,5.17a10,10,0,0,1,9.93,0L67.4,20.33a10,10,0,0,1,5,8.6V59.24a10,10,0,0,1-5,8.6L41.15,83A10,10,0,0,1,36.18,84.33Zm0-76.64a6,6,0,0,0-3,.82L6.89,23.66a6.1,6.1,0,0,0-3,5.27V59.24a6.09,6.09,0,0,0,3,5.27L33.14,79.67a6.11,6.11,0,0,0,6.08,0L65.48,64.51a6.11,6.11,0,0,0,3-5.27V28.93a6.12,6.12,0,0,0-3-5.27L39.22,8.51A6,6,0,0,0,36.18,7.69Z"/><path class="cls-2" d="M1.92,25.08V55.4a8,8,0,0,0,4,6.93L32.18,77.49a8,8,0,0,0,8,0L66.44,62.33a8,8,0,0,0,4-6.93V25.08a8,8,0,0,0-4-6.93L40.19,3a8,8,0,0,0-8,0L5.93,18.15A8,8,0,0,0,1.92,25.08Z"/><path class="cls-3" d="M36.18,80.48a9.87,9.87,0,0,1-5-1.33L5,64a10,10,0,0,1-5-8.6V25.08a10,10,0,0,1,5-8.6L31.22,1.33a10,10,0,0,1,9.93,0L67.4,16.48a10,10,0,0,1,5,8.6V55.4a10,10,0,0,1-5,8.6L41.15,79.15A9.88,9.88,0,0,1,36.18,80.48Zm0-76.63a6.1,6.1,0,0,0-3,.81L6.89,19.82a6.08,6.08,0,0,0-3,5.26V55.4a6.11,6.11,0,0,0,3,5.27L33.14,75.82a6.06,6.06,0,0,0,6.08,0L65.48,60.67a6.13,6.13,0,0,0,3-5.27V25.08a6.1,6.1,0,0,0-3-5.26L39.22,4.66A6.07,6.07,0,0,0,36.18,3.85Z"/><path class="cls-4" d="M31.07,57.28c-.94-.05-1.8-.12-2.65-.14a1.46,1.46,0,0,0-.66.21,9.37,9.37,0,0,1-9.58-.07c-.88-.5-.95-1.11-.24-1.82.38-.37.77-.73,1.07-1-1-.81-1.88-1.52-2.72-2.34s-.65-1.26.21-1.83c6.57-4.4,13.12-8.83,19.73-13.16a4.71,4.71,0,0,0,1.65-5.35,13.62,13.62,0,0,1-1-8.21,6.22,6.22,0,0,1,9-4.22,5.33,5.33,0,0,1,2.53,3.13.8.8,0,0,0,.65.6,20.73,20.73,0,0,0,5.26.61,3.45,3.45,0,0,1,1.35.26A1.6,1.6,0,0,1,56.47,26,3.39,3.39,0,0,1,55,27.78a13.88,13.88,0,0,1-5.63,1.89c-1,.12-1.95.17-2.91.31-1.13.17-1.26.38-1.05,1.5a12,12,0,0,0,2,4.56A10.52,10.52,0,0,1,47,48.63,19.54,19.54,0,0,1,41,53.73a.84.84,0,0,0-.48.85c0,1.8,0,3.6,0,5.46l.58,0c1.25,0,2.51,0,3.76,0a.87.87,0,0,1,.94.78.85.85,0,0,1-.53,1,1.41,1.41,0,0,1-.55.07h-5c-.77,0-1.11-.34-1.11-1.1V55c-.88.36-1.68.74-2.52,1s-2,.57-2.91.87c-.14,0-.33.21-.33.33,0,.9,0,1.81,0,2.8h.64c1.23,0,2.47,0,3.71,0a.87.87,0,0,1,.93.78.84.84,0,0,1-.57,1,1.12,1.12,0,0,1-.45,0H32.11a.92.92,0,0,1-1-1C31.06,59.66,31.07,58.48,31.07,57.28Zm-5.28-3,.53.31a5.51,5.51,0,0,0,.66.29,9.68,9.68,0,0,0,5.38.34,23.56,23.56,0,0,0,11.56-5.89,9.53,9.53,0,0,0,3.44-7.94,6.15,6.15,0,0,0-1.14-3.51l-.49.23a11.84,11.84,0,0,1-8.37.9,1,1,0,0,0-.89.14l-17.95,12-.35.26a5.8,5.8,0,0,0,6.34,1.36A24.56,24.56,0,0,0,31.45,49a.86.86,0,0,1,1.32.32c.25.47.14.86-.41,1.35A17,17,0,0,1,28.3,53.1C27.51,53.49,26.69,53.84,25.79,54.26ZM43.7,32.76c-.1-.84-.2-1.61-.28-2.37a1.34,1.34,0,0,1,.77-1.45,7.35,7.35,0,0,1,1.7-.7c1.16-.21,2.35-.26,3.52-.43a10.81,10.81,0,0,0,4.66-1.67,6.34,6.34,0,0,0,.65-.6c-.3,0-.44-.05-.57,0a21.37,21.37,0,0,1-6.36-.86,1.23,1.23,0,0,1-1-1.1,3.64,3.64,0,0,0-2.12-2.75,4.45,4.45,0,0,0-6.06,3.32,11.06,11.06,0,0,0,.29,4.65c.42,1.63.93,3.24,1.43,4.94A7,7,0,0,0,43.7,32.76Zm.67,1.75a9.62,9.62,0,0,1-4.44,1.06.4.4,0,0,0-.3.19c-.3.54-.57,1.09-.87,1.66a10.35,10.35,0,0,0,6.49-1.16ZM19.84,56.08a7.78,7.78,0,0,0,5.74.26l-1.65-1.16a.45.45,0,0,0-.17-.11,4.13,4.13,0,0,0-.49-.07H21.52a1,1,0,0,0-.53.06C20.62,55.34,20.28,55.68,19.84,56.08Z"/><path class="cls-4" d="M25.79,54.26c.9-.42,1.72-.77,2.51-1.16a17,17,0,0,0,4.06-2.42c.55-.49.66-.88.41-1.35A.86.86,0,0,0,31.45,49a24.56,24.56,0,0,1-6.94,3.75,5.8,5.8,0,0,1-6.34-1.36l.35-.26,18-12a1,1,0,0,1,.89-.14,11.84,11.84,0,0,0,8.37-.9l.49-.23a6.15,6.15,0,0,1,1.14,3.51,9.53,9.53,0,0,1-3.44,7.94A23.56,23.56,0,0,1,32.36,55.2,9.68,9.68,0,0,1,27,54.86a5.51,5.51,0,0,1-.66-.29Z"/><path class="cls-4" d="M43.7,32.76a7,7,0,0,1-3.4.94c-.5-1.7-1-3.31-1.43-4.94a11.06,11.06,0,0,1-.29-4.65,4.45,4.45,0,0,1,6.06-3.32,3.64,3.64,0,0,1,2.12,2.75,1.23,1.23,0,0,0,1,1.1,21.37,21.37,0,0,0,6.36.86c.13,0,.27,0,.57,0a6.34,6.34,0,0,1-.65.6,10.81,10.81,0,0,1-4.66,1.67c-1.17.17-2.36.22-3.52.43a7.35,7.35,0,0,0-1.7.7,1.34,1.34,0,0,0-.77,1.45C43.5,31.15,43.6,31.92,43.7,32.76Zm0-7.63A1.18,1.18,0,0,0,44.88,24a1.19,1.19,0,1,0-2.37,0A1.18,1.18,0,0,0,43.7,25.13Z"/><path class="cls-4" d="M44.37,34.51l.88,1.75a10.35,10.35,0,0,1-6.49,1.16c.3-.57.57-1.12.87-1.66a.4.4,0,0,1,.3-.19A9.62,9.62,0,0,0,44.37,34.51Z"/><path class="cls-4" d="M19.84,56.08c.44-.4.78-.74,1.15-1a1,1,0,0,1,.53-.06h1.75a4.13,4.13,0,0,1,.49.07.45.45,0,0,1,.17.11l1.65,1.16A7.78,7.78,0,0,1,19.84,56.08Z"/><path class="cls-4" d="M43.7,25.13A1.18,1.18,0,0,1,42.51,24a1.19,1.19,0,1,1,2.37,0A1.18,1.18,0,0,1,43.7,25.13Z"/></g></g></svg>