<svg xmlns="http://www.w3.org/2000/svg" viewBox="0 0 72.37 84.04"><defs><style>.cls-1{fill:#8d5210;}.cls-2{fill:#ffd57f;}.cls-3{fill:#e4a15f;}.cls-4{fill:#8f5311;}</style></defs><g id="Layer_2" data-name="Layer 2"><g id="icon"><path class="cls-1" d="M1.92,28.64V59a8,8,0,0,0,4,6.94L32.18,81.05a8,8,0,0,0,8,0L66.44,65.89a8,8,0,0,0,4-6.94V28.64a8,8,0,0,0-4-6.93L40.19,6.55a8,8,0,0,0-8,0L5.93,21.71A8,8,0,0,0,1.92,28.64Z"/><path class="cls-1" d="M36.18,84a9.87,9.87,0,0,1-5-1.33L5,67.56A10,10,0,0,1,0,59V28.64A10,10,0,0,1,5,20L31.22,4.88a10,10,0,0,1,9.93,0L67.4,20a10,10,0,0,1,5,8.6V59a10,10,0,0,1-5,8.6L41.15,82.71A9.88,9.88,0,0,1,36.18,84Zm0-76.64a6,6,0,0,0-3,.82L6.89,23.37a6.1,6.1,0,0,0-3,5.27V59a6.08,6.08,0,0,0,3,5.26L33.14,79.38a6.11,6.11,0,0,0,6.08,0L65.48,64.22a6.1,6.1,0,0,0,3-5.26V28.64a6.12,6.12,0,0,0-3-5.27L39.22,8.22A6,6,0,0,0,36.18,7.4Z"/><path class="cls-2" d="M1.92,25.08V55.4a8,8,0,0,0,4,6.93L32.18,77.49a8,8,0,0,0,8,0L66.44,62.33a8,8,0,0,0,4-6.93V25.08a8,8,0,0,0-4-6.93L40.19,3a8,8,0,0,0-8,0L5.93,18.15A8,8,0,0,0,1.92,25.08Z"/><path class="cls-3" d="M36.18,80.48a9.87,9.87,0,0,1-5-1.33L5,64a10,10,0,0,1-5-8.6V25.08a10,10,0,0,1,5-8.6L31.22,1.33a10,10,0,0,1,9.93,0L67.4,16.48a10,10,0,0,1,5,8.6V55.4a10,10,0,0,1-5,8.6L41.15,79.15A9.88,9.88,0,0,1,36.18,80.48Zm0-76.63a6.1,6.1,0,0,0-3,.81L6.89,19.82a6.08,6.08,0,0,0-3,5.26V55.4a6.11,6.11,0,0,0,3,5.27L33.14,75.82a6.06,6.06,0,0,0,6.08,0L65.48,60.67a6.13,6.13,0,0,0,3-5.27V25.08a6.1,6.1,0,0,0-3-5.26L39.22,4.66A6.07,6.07,0,0,0,36.18,3.85Z"/><path class="cls-4" d="M31.07,24.7a9.21,9.21,0,0,1,1,2.63c.5,2,.08,4-.1,6-.05.56-.12,1.11-.2,1.8.2-.23.33-.37.45-.52,2.55-3.07,5-6.24,7.7-9.18a42.33,42.33,0,0,1,7.6-6.67A11.2,11.2,0,0,1,51.4,17a2.46,2.46,0,0,1,2.33.55,9.27,9.27,0,0,0,1.15.92,3,3,0,0,1,1.23,3.25,18.41,18.41,0,0,1-2,5.62,55.47,55.47,0,0,1-6.7,10c-1.76,2.13-3.5,4.27-5.25,6.41-.12.15-.3.27-.33.53,3.49-1,6.92-2.39,10.67-1.2a3.28,3.28,0,0,1-1,.38A30.57,30.57,0,0,0,38.29,51.7,79.42,79.42,0,0,1,30.77,59a16.09,16.09,0,0,1-4.92,2.75A7.71,7.71,0,0,1,23,62a1.9,1.9,0,0,0-1.78.78c-.82,1-.85,1-1.86.19s-1.9-1.63-2.87-2.43c-.28-.24-.34-.43-.08-.72s.53-.7.83-1a1,1,0,0,0,.29-1.21c-1-2.62-.41-5.1.69-7.54a37,37,0,0,1,3.35-5.48c1.57-2.29,3.38-4.41,4.87-6.75A29.67,29.67,0,0,0,31,25.28C31,25.08,31,24.89,31.07,24.7Z"/></g></g></svg>