<svg xmlns="http://www.w3.org/2000/svg" viewBox="0 0 72.37 84.04"><defs><style>.cls-1{fill:#8d5210;}.cls-2{fill:#ffd57f;}.cls-3{fill:#e4a15f;}.cls-4{fill:#8e5311;}</style></defs><g id="Layer_2" data-name="Layer 2"><g id="icon"><path class="cls-1" d="M1.92,28.64V59a8,8,0,0,0,4,6.94L32.18,81.05a8,8,0,0,0,8,0L66.44,65.89a8,8,0,0,0,4-6.94V28.64a8,8,0,0,0-4-6.93L40.19,6.55a8,8,0,0,0-8,0L5.93,21.71A8,8,0,0,0,1.92,28.64Z"/><path class="cls-1" d="M36.18,84a9.87,9.87,0,0,1-5-1.33L5,67.56A10,10,0,0,1,0,59V28.64A10,10,0,0,1,5,20L31.22,4.88a10,10,0,0,1,9.93,0L67.4,20a10,10,0,0,1,5,8.6V59a10,10,0,0,1-5,8.6L41.15,82.71A9.88,9.88,0,0,1,36.18,84Zm0-76.64a6,6,0,0,0-3,.82L6.89,23.37a6.1,6.1,0,0,0-3,5.27V59a6.08,6.08,0,0,0,3,5.26L33.14,79.38a6.11,6.11,0,0,0,6.08,0L65.48,64.22a6.1,6.1,0,0,0,3-5.26V28.64a6.12,6.12,0,0,0-3-5.27L39.22,8.22A6,6,0,0,0,36.18,7.4Z"/><path class="cls-2" d="M1.92,25.08V55.4a8,8,0,0,0,4,6.93L32.18,77.49a8,8,0,0,0,8,0L66.44,62.33a8,8,0,0,0,4-6.93V25.08a8,8,0,0,0-4-6.93L40.19,3a8,8,0,0,0-8,0L5.93,18.15A8,8,0,0,0,1.92,25.08Z"/><path class="cls-3" d="M36.18,80.48a9.87,9.87,0,0,1-5-1.33L5,64a10,10,0,0,1-5-8.6V25.08a10,10,0,0,1,5-8.6L31.22,1.33a10,10,0,0,1,9.93,0L67.4,16.48a10,10,0,0,1,5,8.6V55.4a10,10,0,0,1-5,8.6L41.15,79.15A9.88,9.88,0,0,1,36.18,80.48Zm0-76.63a6.1,6.1,0,0,0-3,.81L6.89,19.82a6.08,6.08,0,0,0-3,5.26V55.4a6.11,6.11,0,0,0,3,5.27L33.14,75.82a6.06,6.06,0,0,0,6.08,0L65.48,60.67a6.13,6.13,0,0,0,3-5.27V25.08a6.1,6.1,0,0,0-3-5.26L39.22,4.66A6.07,6.07,0,0,0,36.18,3.85Z"/><path class="cls-4" d="M50.79,46.17a13.63,13.63,0,0,0-2.24-1.26,3.32,3.32,0,0,0-1.63.15c-.56.12-1.1.32-1.69.5.37.53.18.95-.11,1.45-.54.93-1,1.92-1.45,2.9a2.62,2.62,0,0,0-.13.52c.69,0,1.32,0,1.94,0s1.07.67.7,1.16a1,1,0,0,1-.72.36c-.88,0-1.77,0-2.65,0s-1-.34-.93-1.1a10.45,10.45,0,0,1,1.57-4.21,1.89,1.89,0,0,0,.17-.49,2.63,2.63,0,0,0-.56,0c-.61.15-1.21.31-1.81.48a.71.71,0,0,0-.39.21,8.26,8.26,0,0,0-1.19,3.57c.25,0,.46,0,.66,0a.78.78,0,0,1,.79.81.76.76,0,0,1-.82.73H39c-.74,0-1-.3-.91-1,.19-1.24.44-2.46.67-3.7l-2.52.45a37.16,37.16,0,0,1-6.74.55c-.41,0-.57.1-.59.53,0,.79-.11,1.59-.17,2.38,0,.57-.29.83-.87.84H27c-.53,0-.86-.28-.88-.72s.27-.74.79-.83l.28,0,.2-2.21L25.49,48c-.06,1-.16,1.91-.17,2.84S25.09,52,24.11,52H18c-.6,0-.93-.23-1-.66s.27-.93.93-.93h5.65l-.16-2.9a15.85,15.85,0,0,1-5.63-2.77c-.32-.26-.64-.52-.94-.79a.79.79,0,0,1,0-1.27c.34-.34.69-.65,1.06-1-.71-.45-1.4-.87-2.06-1.33s-1.31-1-1.95-1.49c-.47-.38-.55-.81-.25-1.18s.74-.38,1.26,0c1.14.85,2.29,1.69,3.48,2.48a5.09,5.09,0,0,0-1.4-3c-.09-.1-.19-.19-.28-.3a.77.77,0,1,1,1.12-1.06,7.39,7.39,0,0,1,2.08,3.67c0,.15.07.29.12.5.68-.49,1.32-1,2-1.43s1.26-.87,1.91-1.26a1.14,1.14,0,0,0,.59-.82,23.82,23.82,0,0,1,2.36-6.64A7.85,7.85,0,0,1,29.6,27a4.59,4.59,0,0,1,1.86-.61,2.37,2.37,0,0,1,2.74,2.34,8.17,8.17,0,0,1-.07,1.78,4.42,4.42,0,0,0,.67,3.11.62.62,0,0,0,.4.25,12.52,12.52,0,0,1,6,2,2.82,2.82,0,0,0,1.76.43,8,8,0,0,0,3.86-.91A10.36,10.36,0,0,1,49,34.68a1.05,1.05,0,0,1,.7,0,1.45,1.45,0,0,0,1.57-.32A1.89,1.89,0,0,1,52,34c.65-.14.91-.59,1.14-1.16.84-2.11,1.72-4.21,2.57-6.31.17-.4.38-.74.87-.71s.87.58.6,1.22c-.83,2.06-1.68,4.12-2.52,6.17l-.19.45.52.23c.76-1.66,1.5-3.29,2.25-4.92.1-.22.15-.5.32-.63a1.07,1.07,0,0,1,.79-.24c.22.06.42.4.49.65a1.13,1.13,0,0,1-.14.73c-.79,1.71-1.61,3.4-2.41,5.11a.71.71,0,0,0,0,.53,9.61,9.61,0,0,1,1,6,5.56,5.56,0,0,1-.84,2.69,2.16,2.16,0,0,1-3,.74,28.84,28.84,0,0,1-2.54-1.65l-1,.9a8.28,8.28,0,0,1,.79.5,8.57,8.57,0,0,1,1,.74c1.22,1.11.9,1.37.31,2.21a8.27,8.27,0,0,0-1.41,3.2h1.6a2.9,2.9,0,0,1,.51,0,.75.75,0,0,1,.63.85.71.71,0,0,1-.75.68c-1,0-1.94,0-2.91,0-.56,0-.82-.37-.75-1a10,10,0,0,1,1.54-4.22Zm-18.9-6.69H32c0,.59,0,1.19,0,1.78a9.25,9.25,0,0,0,.81,3.55A2,2,0,0,0,35,46a4.39,4.39,0,0,0,2.68-1.23,3,3,0,0,0,.72-1.3,4.47,4.47,0,0,0-.64-3.12,22,22,0,0,0-3.35-4.66,6.28,6.28,0,0,1-1.76-5.56,4.36,4.36,0,0,0,.06-.81c0-1.33-.63-1.75-1.86-1.25a1.58,1.58,0,0,0-.8,2.58,3.41,3.41,0,0,0,.43.57,5.83,5.83,0,0,1,1.65,4.94C32,37.28,32,38.38,31.89,39.48Zm.17,7.23a16.66,16.66,0,0,1-1-2.1,16.92,16.92,0,0,1-.62-6.79c0-.61.08-1.23.13-1.91a8.19,8.19,0,0,1-1.19.39,1.44,1.44,0,0,0-1.14,1.14c-.68,2.27-1.38,4.53-2,6.81-.2.69-.28,1.41-.44,2.28ZM49.63,36.18a4.76,4.76,0,0,0-.93.16c-.61.24-1.2.57-1.82.78a19.28,19.28,0,0,1-2.48.66,16.62,16.62,0,0,1-1.92.12c.1.17.16.29.23.4.94,1.27,1.87,2.55,2.82,3.81a5.05,5.05,0,0,0,.88.91,1.46,1.46,0,0,0,2,0c.35-.26.64-.61,1-.87A1.47,1.47,0,0,0,50,40.31a3.83,3.83,0,0,1-.12-1C49.81,38.32,49.72,37.29,49.63,36.18Zm-13.29-.59c.32.41.54.68.75,1A14.65,14.65,0,0,1,39.65,41a5,5,0,0,1,.05,3.63c-.11.27-.27.53-.47.9L41.5,45a.74.74,0,0,0-.28-.25c-.5-.26-.68-.66-.49-1.07a.8.8,0,0,1,1.17-.33,6.69,6.69,0,0,1,1.3.68c.66.52,1.21.15,1.85,0-.28-.33-.53-.61-.75-.9-1-1.3-1.93-2.59-2.87-3.9a2.37,2.37,0,0,1-.51-1.09A1.28,1.28,0,0,0,40.07,37,11.75,11.75,0,0,0,36.34,35.59Zm19.58,4a7.74,7.74,0,0,0-1-3.63A1.41,1.41,0,0,0,53,35.24a10.29,10.29,0,0,0-1.42.77.61.61,0,0,0-.34.67c.16,1.45.3,2.9.46,4.35a.79.79,0,0,0,.18.46,16.6,16.6,0,0,0,2,1.52c.9.54,1.3.38,1.58-.62S55.76,40.53,55.92,39.6Zm-32-.45L23.84,39l-5.37,4.2a13.38,13.38,0,0,0,4.94,2.62Zm1.52,1.43c1-2.91,1.92-5.82,3.81-8.25l-1.05-1.72A29.53,29.53,0,0,0,25.45,40.58Zm4.8-7-.66,1,.88-.25Z"/><path class="cls-4" d="M31.89,39.48c.08-1.1.11-2.2.22-3.3a5.83,5.83,0,0,0-1.65-4.94,3.41,3.41,0,0,1-.43-.57,1.58,1.58,0,0,1,.8-2.58c1.23-.5,1.87-.08,1.86,1.25a4.36,4.36,0,0,1-.06.81,6.28,6.28,0,0,0,1.76,5.56,22,22,0,0,1,3.35,4.66,4.47,4.47,0,0,1,.64,3.12,3,3,0,0,1-.72,1.3A4.39,4.39,0,0,1,35,46a2,2,0,0,1-2.2-1.2A9.25,9.25,0,0,1,32,41.27c0-.59,0-1.19,0-1.78Z"/><path class="cls-4" d="M32.06,46.71l-6.31-.18c.16-.87.24-1.59.44-2.28.65-2.28,1.35-4.54,2-6.81a1.44,1.44,0,0,1,1.14-1.14,8.19,8.19,0,0,0,1.19-.39c-.05.68-.09,1.3-.13,1.91A16.92,16.92,0,0,0,31,44.61,16.66,16.66,0,0,0,32.06,46.71Z"/><path class="cls-4" d="M49.63,36.18c.09,1.11.18,2.14.27,3.17a3.83,3.83,0,0,0,.12,1,1.47,1.47,0,0,1-.65,1.85c-.36.26-.65.61-1,.87a1.46,1.46,0,0,1-2,0,5.05,5.05,0,0,1-.88-.91c-1-1.26-1.88-2.54-2.82-3.81-.07-.11-.13-.23-.23-.4a16.62,16.62,0,0,0,1.92-.12,19.28,19.28,0,0,0,2.48-.66c.62-.21,1.21-.54,1.82-.78A4.76,4.76,0,0,1,49.63,36.18Z"/><path class="cls-4" d="M36.34,35.59A11.75,11.75,0,0,1,40.07,37a1.28,1.28,0,0,1,.85,1.12,2.37,2.37,0,0,0,.51,1.09c.94,1.31,1.9,2.6,2.87,3.9.22.29.47.57.75.9-.64.18-1.19.55-1.85,0a6.69,6.69,0,0,0-1.3-.68.8.8,0,0,0-1.17.33c-.19.41,0,.81.49,1.07a.74.74,0,0,1,.28.25l-2.27.54c.2-.37.36-.63.47-.9A5,5,0,0,0,39.65,41a14.65,14.65,0,0,0-2.56-4.43C36.88,36.27,36.66,36,36.34,35.59Z"/><path class="cls-4" d="M55.92,39.6c-.16.93-.25,1.89-.5,2.79s-.68,1.16-1.58.62a16.6,16.6,0,0,1-2-1.52A.79.79,0,0,1,51.7,41c-.16-1.45-.3-2.9-.46-4.35a.61.61,0,0,1,.34-.67A10.29,10.29,0,0,1,53,35.24a1.41,1.41,0,0,1,1.93.73A7.74,7.74,0,0,1,55.92,39.6ZM55,38.43a2.64,2.64,0,0,0-1.92-2.34.7.7,0,0,0-.8.49.66.66,0,0,0,.27.89,1.85,1.85,0,0,1,1,1.14A.77.77,0,0,0,55,38.43Z"/><path class="cls-4" d="M23.93,39.15l-.52,6.69a13.38,13.38,0,0,1-4.94-2.62L23.84,39Z"/><path class="cls-4" d="M25.45,40.58a29.53,29.53,0,0,1,2.76-10l1.05,1.72C27.37,34.76,26.42,37.67,25.45,40.58Z"/><path class="cls-4" d="M55,38.43a.77.77,0,0,1-1.45.18,1.85,1.85,0,0,0-1-1.14.66.66,0,0,1-.27-.89.7.7,0,0,1,.8-.49A2.64,2.64,0,0,1,55,38.43Z"/></g></g></svg>