<svg xmlns="http://www.w3.org/2000/svg" viewBox="0 0 72.37 84.04"><defs><style>.cls-1{fill:#8f5311;}.cls-2{fill:#ffd57f;}.cls-3{fill:#e5a161;}.cls-4{fill:#8e5311;}</style></defs><g id="Layer_2" data-name="Layer 2"><g id="icon"><path class="cls-1" d="M1.92,28.64V59a8,8,0,0,0,4,6.93L32.18,81.05a8,8,0,0,0,8,0L66.44,65.89a8,8,0,0,0,4-6.93V28.64a8,8,0,0,0-4-6.93L40.19,6.55a8,8,0,0,0-8,0L5.93,21.71A8,8,0,0,0,1.92,28.64Z"/><path class="cls-1" d="M36.18,84a9.87,9.87,0,0,1-5-1.33L5,67.56A10,10,0,0,1,0,59V28.64A10,10,0,0,1,5,20L31.22,4.89a10,10,0,0,1,9.93,0L67.4,20a10,10,0,0,1,5,8.6V59a10,10,0,0,1-5,8.6L41.15,82.71A9.88,9.88,0,0,1,36.18,84Zm0-76.63a6.1,6.1,0,0,0-3,.81L6.89,23.38a6.08,6.08,0,0,0-3,5.26V59a6.11,6.11,0,0,0,3,5.27L33.14,79.38a6.06,6.06,0,0,0,6.08,0L65.48,64.23a6.13,6.13,0,0,0,3-5.27V28.64a6.1,6.1,0,0,0-3-5.26L39.22,8.22A6.07,6.07,0,0,0,36.18,7.41Z"/><path class="cls-2" d="M1.92,25.08V55.4a8,8,0,0,0,4,6.93L32.18,77.49a8,8,0,0,0,8,0L66.44,62.33a8,8,0,0,0,4-6.93V25.08a8,8,0,0,0-4-6.93L40.19,3a8,8,0,0,0-8,0L5.93,18.15A8,8,0,0,0,1.92,25.08Z"/><path class="cls-3" d="M36.18,80.48a9.87,9.87,0,0,1-5-1.33L5,64a10,10,0,0,1-5-8.6V25.08a10,10,0,0,1,5-8.6L31.22,1.33a10,10,0,0,1,9.93,0L67.4,16.48a10,10,0,0,1,5,8.6V55.4a10,10,0,0,1-5,8.6L41.15,79.15A9.88,9.88,0,0,1,36.18,80.48Zm0-76.63a6.1,6.1,0,0,0-3,.81L6.89,19.82a6.08,6.08,0,0,0-3,5.26V55.4a6.11,6.11,0,0,0,3,5.27L33.14,75.82a6.06,6.06,0,0,0,6.08,0L65.48,60.67a6.13,6.13,0,0,0,3-5.27V25.08a6.1,6.1,0,0,0-3-5.26L39.22,4.66A6.07,6.07,0,0,0,36.18,3.85Z"/><path class="cls-2" d="M33.74,49.64c-3.1-.18-6.13-.44-9.17-.5a21.13,21.13,0,0,1-8.48-1.46C9.73,44.83,10.18,37.76,13.38,34c2.41-2.83,5.67-3.69,9.21-3.4A42,42,0,0,1,28,31.73c.2,0,.4.12.65.19.54-2.74,2.45-4.21,4.68-5.39s4.35-2.42,6.59-3.49a7.17,7.17,0,0,1,6.49-.27C48.65,23.89,51.56,27,51,30.4a8.7,8.7,0,0,1-3.28,5.05C46.06,36.89,44,37,42,37.58a15.38,15.38,0,0,0-2.31,1c-.38.17-.37.44-.14.79,1,1.46,1,1.46,2.5.67A17.09,17.09,0,0,1,55,38.88c3,.86,6,4.62,6.27,7.75A6.82,6.82,0,0,1,56,53.79a27.39,27.39,0,0,1-4.15.66A8.83,8.83,0,0,0,48,55.86c-.52.34-1,.71-1.55,1a8.44,8.44,0,0,1-9.07.29,7,7,0,0,1-3.59-6.39C33.73,50.47,33.74,50.15,33.74,49.64ZM34.66,47c-.24-.13-.45-.25-.66-.35-.54-.27-.82-.68-.52-1.24s.7-.42,1.18-.16A1.22,1.22,0,0,0,36.2,45c.87-.92,1.73-1.85,2.63-2.75a.67.67,0,0,0,.14-1,18.72,18.72,0,0,0-1.62-2.11,23.13,23.13,0,0,0-6.6-4.5c-3-1.44-6-2.65-9.44-2.53-4,.15-7.36,2-8.36,6.09-.72,2.91-.16,5.57,2.55,7.41a12.12,12.12,0,0,0,6.12,1.89c3.8.27,7.6.42,11.4.69C33.93,48.23,34.48,48,34.66,47Zm15.13-7.34a14,14,0,0,0-6.06,1.21,17.06,17.06,0,0,0-7.51,6.7,5.89,5.89,0,0,0,2.92,8.77,7.21,7.21,0,0,0,7-1.18,11.59,11.59,0,0,1,6.11-2.34,18,18,0,0,0,3.65-.66,5.17,5.17,0,0,0,3.55-6.43,8.36,8.36,0,0,0-3.22-4.45C54.35,39.86,52.08,39.73,49.79,39.69Zm-13-3.24a9,9,0,0,0,1,.9c.18.12.56.2.69.09,1.58-1.19,3.46-1.46,5.31-1.84a7.63,7.63,0,0,0,5.17-4,3.76,3.76,0,0,0,.36-3.29c-1.24-3.28-4.31-5.93-8.47-4-2.77,1.26-5.43,2.77-8.07,4.29a4.42,4.42,0,0,0-2.5,3.3,1.15,1.15,0,0,0,.46.94c1.11.66,2.27,1.24,3.42,1.84a1,1,0,0,0,.45.15c.63-.05,1.25-.17,1.89-.19.26,0,.66.09.75.27a1.38,1.38,0,0,1,0,.92C37.18,36,37,36.2,36.74,36.45Z"/><path class="cls-4" d="M34.66,47c-.18,1-.73,1.2-1.64,1.14-3.8-.27-7.6-.42-11.4-.69a12.12,12.12,0,0,1-6.12-1.89c-2.71-1.84-3.27-4.5-2.55-7.41,1-4.08,4.38-5.94,8.36-6.09,3.41-.12,6.46,1.09,9.44,2.53a23.13,23.13,0,0,1,6.6,4.5A18.72,18.72,0,0,1,39,41.23a.67.67,0,0,1-.14,1c-.9.9-1.76,1.83-2.63,2.75a1.22,1.22,0,0,1-1.54.31c-.48-.26-.9-.36-1.18.16s0,1,.52,1.24C34.21,46.78,34.42,46.9,34.66,47ZM19.11,45.91c.19-.21.59-.46.6-.73a1,1,0,0,0-.55-.81,5.4,5.4,0,0,1-4-3.33c-.08-.23-.68-.41-1-.34s-.45.64-.37.89a6.84,6.84,0,0,0,.92,1.78A7.07,7.07,0,0,0,19.11,45.91Zm11.71-5.82a1.73,1.73,0,0,0,1.76-.94,1,1,0,0,0-.15-.91c-.19-.16-.62-.11-.94-.06a3.59,3.59,0,0,0-1.06.31c-.28.14-.66.36-.7.61s.2.62.43.82S30.66,40.06,30.82,40.09Zm-9.36-3.17c-.2-.7-.37-1.21-1-1.23s-.77.43-.77,1c0,.25-.31.49-.34.76a1.39,1.39,0,0,0,.1,1,.9.9,0,0,0,.9,0A12.53,12.53,0,0,0,21.46,36.92Zm4.66,5.89c-.11-.11-.29-.46-.55-.54a1.25,1.25,0,0,0-.84.29,3.79,3.79,0,0,0-.79.81c-.18.24-.39.58-.33.81a1,1,0,0,0,.67.56A1.93,1.93,0,0,0,26.12,42.81ZM15.34,39.22c-.53-.4-.83-.81-1.13-.8s-.65.43-.73.73a.63.63,0,0,0,.72.82C14.52,39.93,14.8,39.6,15.34,39.22Z"/><path class="cls-4" d="M49.79,39.69c2.29,0,4.56.17,6.48,1.62a8.36,8.36,0,0,1,3.22,4.45,5.17,5.17,0,0,1-3.55,6.43,18,18,0,0,1-3.65.66,11.59,11.59,0,0,0-6.11,2.34,7.21,7.21,0,0,1-7,1.18,5.89,5.89,0,0,1-2.92-8.77,17.06,17.06,0,0,1,7.51-6.7A14,14,0,0,1,49.79,39.69Zm8.6,6.3c0-1.16-2.4-4.12-3.37-4.18a.89.89,0,0,0-.72.37.84.84,0,0,0,.06.79,9.46,9.46,0,0,1,2.7,3.29c.09.18.58.28.85.22S58.29,46.1,58.39,46ZM40.33,49.66a5.72,5.72,0,0,0,.77-.12c.53-.16,1-.43.8-1.09s-.62-.52-1.11-.46c-.28,0-.59-.18-.88-.18a5.46,5.46,0,0,0-1.06.18c.07.36,0,.86.24,1A4.78,4.78,0,0,0,40.33,49.66Zm10.08-.24c.1-.1.47-.3.51-.55s-.18-.6-.35-.87a3.67,3.67,0,0,0-.67-.75c-.24-.21-.56-.53-.8-.5a1,1,0,0,0-.66.68A1.84,1.84,0,0,0,50.41,49.42Z"/><path class="cls-4" d="M36.74,36.45c.21-.25.44-.41.5-.61a1.38,1.38,0,0,0,0-.92c-.09-.18-.49-.28-.75-.27-.64,0-1.26.14-1.89.19a1,1,0,0,1-.45-.15c-1.15-.6-2.31-1.18-3.42-1.84a1.15,1.15,0,0,1-.46-.94,4.42,4.42,0,0,1,2.5-3.3c2.64-1.52,5.3-3,8.07-4.29,4.16-1.9,7.23.75,8.47,4A3.76,3.76,0,0,1,49,31.64a7.63,7.63,0,0,1-5.17,4c-1.85.38-3.73.65-5.31,1.84-.13.11-.51,0-.69-.09A9,9,0,0,1,36.74,36.45ZM38,32.25c.66-.19,1.25-.32,1.23-1,0-.27-.44-.58-.74-.76a2.77,2.77,0,0,0-1.06-.35c-.33,0-.81-.07-1,.11a1,1,0,0,0,0,1A9.32,9.32,0,0,0,38,32.25Zm6.47-1.35a6.12,6.12,0,0,0,1.28-.77.92.92,0,0,0,0-.91c-.15-.2-.6-.22-.91-.22a3.35,3.35,0,0,0-1,.19c-.32.11-.83.29-.85.49a1.34,1.34,0,0,0,.46.95C43.58,30.81,44,30.79,44.44,30.9Z"/><path class="cls-2" d="M19.11,45.91a7.07,7.07,0,0,1-4.37-2.54,6.84,6.84,0,0,1-.92-1.78c-.08-.25.18-.85.37-.89s.9.11,1,.34a5.4,5.4,0,0,0,4,3.33,1,1,0,0,1,.55.81C19.7,45.45,19.3,45.7,19.11,45.91Z"/><path class="cls-2" d="M30.82,40.09c-.16,0-.49,0-.66-.17s-.48-.58-.43-.82.42-.47.7-.61a3.59,3.59,0,0,1,1.06-.31c.32,0,.75-.1.94.06a1,1,0,0,1,.15.91A1.73,1.73,0,0,1,30.82,40.09Z"/><path class="cls-2" d="M21.46,36.92a12.53,12.53,0,0,1-1.11,1.56.9.9,0,0,1-.9,0,1.39,1.39,0,0,1-.1-1c0-.27.34-.51.34-.76,0-.57.15-1,.77-1S21.26,36.22,21.46,36.92Z"/><path class="cls-2" d="M26.12,42.81a1.93,1.93,0,0,1-1.84,1.93,1,1,0,0,1-.67-.56c-.06-.23.15-.57.33-.81a3.79,3.79,0,0,1,.79-.81,1.25,1.25,0,0,1,.84-.29C25.83,42.35,26,42.7,26.12,42.81Z"/><path class="cls-2" d="M15.34,39.22c-.54.38-.82.71-1.14.75a.63.63,0,0,1-.72-.82c.08-.3.47-.73.73-.73S14.81,38.82,15.34,39.22Z"/><path class="cls-2" d="M58.39,46c-.1.11-.26.44-.48.49s-.76,0-.85-.22A9.46,9.46,0,0,0,54.36,43a.84.84,0,0,1-.06-.79.89.89,0,0,1,.72-.37C56,41.87,58.44,44.83,58.39,46Z"/><path class="cls-2" d="M40.33,49.66A4.78,4.78,0,0,1,39.09,49c-.22-.19-.17-.69-.24-1a5.46,5.46,0,0,1,1.06-.18c.29,0,.6.22.88.18.49-.06,1-.13,1.11.46s-.27.93-.8,1.09A5.72,5.72,0,0,1,40.33,49.66Z"/><path class="cls-2" d="M50.41,49.42a1.84,1.84,0,0,1-2-2,1,1,0,0,1,.66-.68c.24,0,.56.29.8.5a3.67,3.67,0,0,1,.67.75c.17.27.4.61.35.87S50.51,49.32,50.41,49.42Z"/><path class="cls-2" d="M38,32.25a9.32,9.32,0,0,1-1.55-1,1,1,0,0,1,0-1c.16-.18.64-.15,1-.11a2.77,2.77,0,0,1,1.06.35c.3.18.73.49.74.76C39.22,31.93,38.63,32.06,38,32.25Z"/><path class="cls-2" d="M44.44,30.9c-.49-.11-.86-.09-1-.27a1.34,1.34,0,0,1-.46-.95c0-.2.53-.38.85-.49a3.35,3.35,0,0,1,1-.19c.31,0,.76,0,.91.22a.92.92,0,0,1,0,.91A6.12,6.12,0,0,1,44.44,30.9Z"/></g></g></svg>