<svg xmlns="http://www.w3.org/2000/svg" viewBox="0 0 72.37 84.04"><defs><style>.cls-1{fill:#8f5311;}.cls-2{fill:#ffd57f;}.cls-3{fill:#e5a161;}</style></defs><g id="Layer_2" data-name="Layer 2"><g id="icon"><path class="cls-1" d="M1.92,28.64V59a8,8,0,0,0,4,6.93L32.18,81.05a8,8,0,0,0,8,0L66.44,65.89a8,8,0,0,0,4-6.93V28.64a8,8,0,0,0-4-6.93L40.19,6.55a8,8,0,0,0-8,0L5.93,21.71A8,8,0,0,0,1.92,28.64Z"/><path class="cls-1" d="M36.18,84a9.87,9.87,0,0,1-5-1.33L5,67.56A10,10,0,0,1,0,59V28.64A10,10,0,0,1,5,20L31.22,4.89a10,10,0,0,1,9.93,0L67.4,20a10,10,0,0,1,5,8.6V59a10,10,0,0,1-5,8.6L41.15,82.71A9.88,9.88,0,0,1,36.18,84Zm0-76.63a6.1,6.1,0,0,0-3,.81L6.89,23.38a6.08,6.08,0,0,0-3,5.26V59a6.11,6.11,0,0,0,3,5.27L33.14,79.38a6.06,6.06,0,0,0,6.08,0L65.48,64.23a6.13,6.13,0,0,0,3-5.27V28.64a6.1,6.1,0,0,0-3-5.26L39.22,8.22A6.07,6.07,0,0,0,36.18,7.41Z"/><path class="cls-2" d="M1.92,25.08V55.4a8,8,0,0,0,4,6.93L32.18,77.49a8,8,0,0,0,8,0L66.44,62.33a8,8,0,0,0,4-6.93V25.08a8,8,0,0,0-4-6.93L40.19,3a8,8,0,0,0-8,0L5.93,18.15A8,8,0,0,0,1.92,25.08Z"/><path class="cls-3" d="M36.18,80.48a9.87,9.87,0,0,1-5-1.33L5,64a10,10,0,0,1-5-8.6V25.08a10,10,0,0,1,5-8.6L31.22,1.33a10,10,0,0,1,9.93,0L67.4,16.48a10,10,0,0,1,5,8.6V55.4a10,10,0,0,1-5,8.6L41.15,79.15A9.88,9.88,0,0,1,36.18,80.48Zm0-76.63a6.1,6.1,0,0,0-3,.81L6.89,19.82a6.08,6.08,0,0,0-3,5.26V55.4a6.11,6.11,0,0,0,3,5.27L33.14,75.82a6.06,6.06,0,0,0,6.08,0L65.48,60.67a6.13,6.13,0,0,0,3-5.27V25.08a6.1,6.1,0,0,0-3-5.26L39.22,4.66A6.07,6.07,0,0,0,36.18,3.85Z"/><path class="cls-1" d="M41.14,47.45c-.87-.17-1.7-.36-2.53-.48a1.82,1.82,0,0,0-1.89.72c-.18.25-.41.46-.61.69a4.53,4.53,0,0,1-4.87,1.52A24.77,24.77,0,0,1,24.33,47a4.7,4.7,0,0,1-.77-.63A1.25,1.25,0,0,1,24,44.13c.28-.14.65-.15.88-.6-2.38-.37-4.55-1.58-7.08-.67a31.32,31.32,0,0,1-7.53,1.73,4.75,4.75,0,0,1-.92,0C8,44.5,7.78,44.16,7.94,42.87a6.28,6.28,0,0,1,.94-2.58A1.8,1.8,0,0,0,9,38.68,6.42,6.42,0,0,1,8.59,36c.13-1.47.57-1.8,2-1.49a37.32,37.32,0,0,1,5,1.51c1.35.51,2.7,1,4.06,1.53a3.48,3.48,0,0,0,2,.17l5.14-1.12c.15,0,.37,0,.42-.19s-.17-.26-.29-.36l-.38-.32a.84.84,0,0,1-.25-1c.14-.36.46-.44.82-.46a6,6,0,0,1,2.29.44,17.92,17.92,0,0,0,3.69.69A13.62,13.62,0,0,0,36.71,35a64,64,0,0,1,8.64-.51h.54a9.48,9.48,0,0,0-2.25-.81c-1.45-.44-1.75-.9-1.69-2.42,0-.61-.1-1.22-.11-1.84,0-1.18.73-1.7,1.88-1.41a6.18,6.18,0,0,1,2.38,1.5,25.34,25.34,0,0,1,3,3.65A7.68,7.68,0,0,0,53.51,36a32.09,32.09,0,0,1,7.1,2.68c.73.37.82.34,1.11-.45.1-.27.15-.55.23-.82s.15-.42.43-.37.31.26.31.48a3.42,3.42,0,0,1-.34,1.37c-.07.18-.3.36-.05.56a.54.54,0,0,0,.61,0,1.16,1.16,0,0,0,.75-1c0-.3,0-.71.46-.64s.37.44.34.75a1.06,1.06,0,0,1-.12.55c-.49.63-.76,1.12,0,1.87.45.44-.32.79-.75,1.06.25.34.9.42.71,1a1.55,1.55,0,0,1-.84.93c-.43.2-.43.51-.31.88.2.66.44,1.31.6,2a1.92,1.92,0,0,1-.81,2c-.21.13-.44.26-.63,0s-.07-.46.13-.62a1.46,1.46,0,0,0,.4-1.8c-.15-.45-.32-.89-.47-1.34-.08-.21-.06-.53-.38-.51s-.36.36-.39.61c-.07.85-.11,1.7-.17,2.55a3.78,3.78,0,0,1-1.17,2.66,1.45,1.45,0,0,1-.4.3c-.26.11-.59.36-.82,0s.14-.53.39-.69a2.85,2.85,0,0,0,1.18-2.24c.1-.75.09-1.52.16-2.27.05-.53-.12-.7-.68-.65a7.13,7.13,0,0,0-2.68.89,18.42,18.42,0,0,1-8.15,1.95c-1.37.05-2.74.12-4.11.08-.49,0-.68.21-.74.65a7,7,0,0,1-.89,2.75,2.47,2.47,0,0,1-2.89,1.29,3.14,3.14,0,0,1-2.57-2.19c-.24-.76.15-1.33,1.05-1.67a7,7,0,0,0,1.7-.71A.69.69,0,0,0,41.14,47.45Z"/></g></g></svg>