<svg xmlns="http://www.w3.org/2000/svg" viewBox="0 0 72.37 84.04"><defs><style>.cls-1{fill:#8f5311;}.cls-2{fill:#ffd57f;}.cls-3{fill:#e5a161;}.cls-4{fill:#8e5311;}</style></defs><g id="Layer_2" data-name="Layer 2"><g id="icon"><path class="cls-1" d="M1.92,28.64V59a8,8,0,0,0,4,6.93L32.18,81.05a8,8,0,0,0,8,0L66.44,65.89a8,8,0,0,0,4-6.93V28.64a8,8,0,0,0-4-6.93L40.19,6.55a8,8,0,0,0-8,0L5.93,21.71A8,8,0,0,0,1.92,28.64Z"/><path class="cls-1" d="M36.18,84a9.87,9.87,0,0,1-5-1.33L5,67.56A10,10,0,0,1,0,59V28.64A10,10,0,0,1,5,20L31.22,4.89a10,10,0,0,1,9.93,0L67.4,20a10,10,0,0,1,5,8.6V59a10,10,0,0,1-5,8.6L41.15,82.71A9.88,9.88,0,0,1,36.18,84Zm0-76.63a6.1,6.1,0,0,0-3,.81L6.89,23.38a6.08,6.08,0,0,0-3,5.26V59a6.11,6.11,0,0,0,3,5.27L33.14,79.38a6.06,6.06,0,0,0,6.08,0L65.48,64.23a6.13,6.13,0,0,0,3-5.27V28.64a6.1,6.1,0,0,0-3-5.26L39.22,8.22A6.07,6.07,0,0,0,36.18,7.41Z"/><path class="cls-2" d="M1.92,25.08V55.4a8,8,0,0,0,4,6.93L32.18,77.49a8,8,0,0,0,8,0L66.44,62.33a8,8,0,0,0,4-6.93V25.08a8,8,0,0,0-4-6.93L40.19,3a8,8,0,0,0-8,0L5.93,18.15A8,8,0,0,0,1.92,25.08Z"/><path class="cls-3" d="M36.18,80.48a9.87,9.87,0,0,1-5-1.33L5,64a10,10,0,0,1-5-8.6V25.08a10,10,0,0,1,5-8.6L31.22,1.33a10,10,0,0,1,9.93,0L67.4,16.48a10,10,0,0,1,5,8.6V55.4a10,10,0,0,1-5,8.6L41.15,79.15A9.88,9.88,0,0,1,36.18,80.48Zm0-76.63a6.1,6.1,0,0,0-3,.81L6.89,19.82a6.08,6.08,0,0,0-3,5.26V55.4a6.11,6.11,0,0,0,3,5.27L33.14,75.82a6.06,6.06,0,0,0,6.08,0L65.48,60.67a6.13,6.13,0,0,0,3-5.27V25.08a6.1,6.1,0,0,0-3-5.26L39.22,4.66A6.07,6.07,0,0,0,36.18,3.85Z"/><path class="cls-4" d="M14.87,47.8c-.29-1.1-.61-2.14-.82-3.21a5,5,0,0,1,.41-3.05,2.23,2.23,0,0,0,.22-.94,19.93,19.93,0,0,1,.57-5.16.55.55,0,0,1,.56-.5,6.61,6.61,0,0,1,3.62.79c1.31.67,2.62,1.37,4,1.91a7.63,7.63,0,0,0,2.48.41c.34,0,.69-.36,1.14-.62a2.36,2.36,0,0,0-1.78-.09c-.34.11-.59.1-.8-.23a2.37,2.37,0,0,0-.51-.54,16.11,16.11,0,0,1-2.35-3.16c-.32-.44-.12-1.26-.13-1.91,0-.07.24-.17.37-.19.65-.13,1.3-.27,2-.34a31.49,31.49,0,0,1,6.14,0,8.11,8.11,0,0,0,1.68-.2l.38,0c.28,0,.56,0,.83-.08.6-.1,1.2-.24,1.8-.33s1.3-.14,2-.23c.09,0,.17-.13.26-.19a2,2,0,0,1,.36-.23c.29-.14.58-.26.88-.38a.74.74,0,0,1,.27-.1l2,0a.24.24,0,0,1,.14,0,2.46,2.46,0,0,0,1.61.51c.59,0,1.17,0,1.76,0a1.37,1.37,0,0,1,.19,0c.68.12,1.36.2,2,.38.83.23,1.64.54,2.52.84l.26-.8.15,0a9.26,9.26,0,0,1,.76,2c.16,1,.7,1.36,1.67,1.66a17.42,17.42,0,0,1,3.8,1.87c2.23,1.36,4.39,2.83,6.58,4.26l.56.4-1.72,1.1.06.1,1.74-.93a1.62,1.62,0,0,1-.5,1.17,14.36,14.36,0,0,1-4.48,3,2.7,2.7,0,0,1-2.09,0A2.6,2.6,0,0,1,54,43.57a5.83,5.83,0,0,1-.76-4.33c.1-.41.18-.83.27-1.26-1.58,2.26-2.56,5,.84,7.85a20.94,20.94,0,0,1-4.41,1.64c-.94.14-.91.17-1.11,1.08A8.36,8.36,0,0,1,46,53.42a10.11,10.11,0,0,1-1.45.82,5.48,5.48,0,0,0-1-2.22.78.78,0,0,1-.11-.62,2.75,2.75,0,0,0-.57-2c.6-.41,1.35-.68,1.74-1.49-1.21-.07-2.35-.16-3.5-.19s-2.08,0-3.12,0a3.4,3.4,0,0,1-1.92-.57.68.68,0,0,0-1,.19c-.37.48-.79.93-1.2,1.38a7,7,0,0,1-.6.52L33,48.41a4.14,4.14,0,0,1-2.13,2.11L31,48.27l-2.15,1.19c-.32.18-.64.35-1,.51s-.36.1-.62-.08a3.24,3.24,0,0,0-1.53-.57,14.72,14.72,0,0,0-2.3,0,4.32,4.32,0,0,1-2.38-1c.33-.37.62-.71.92-1,.07-.09.2-.14.24-.24a6.66,6.66,0,0,1,1.68-2,1.73,1.73,0,0,1,1.16-.58,5.11,5.11,0,0,0,1.68-.62,6.34,6.34,0,0,0-3.06.36c-1.65.75-3.27,1.59-4.91,2.37a8.27,8.27,0,0,1-1.13.36C16.74,47.28,15.81,47.53,14.87,47.8Zm32.68-1.67-.7-.06a6.27,6.27,0,0,1-4.62-2.75A1.38,1.38,0,0,1,43.45,41a7.43,7.43,0,0,1,3.4.8c.85.39,1.69.82,2.59,1.25a3.56,3.56,0,0,0-2-1.5,25.52,25.52,0,0,0-6.29-1.31c-.55,0-1.11,0-1.74-.07a2.54,2.54,0,0,0,.18.45c1.07,1.41,2.11,2.84,3.23,4.21C44,46.34,45.73,46.5,47.55,46.13Zm-19.8-8a44.85,44.85,0,0,1,22.08-1.68,26.65,26.65,0,0,0-10-1.12A33.55,33.55,0,0,0,27.75,38.17Zm20.36-5.25V32.8l-.18,0a33.07,33.07,0,0,0-6.82-.36A31.73,31.73,0,0,0,30,34.92c-.7.32-1.35.77-2,1.16l.06.11C34.43,33.11,41.17,32.4,48.11,32.92Zm.83,5.79a35.91,35.91,0,0,0-18.2.93A60.75,60.75,0,0,1,48.94,38.71ZM28.4,42.11c4,2.67,8.51,3.62,13.14,4.29C37.09,45.19,32.57,44.19,28.4,42.11Zm27.38-3.24c-.4.61-.4,1,0,1.26a1.35,1.35,0,0,0,1.61-.33.93.93,0,0,0-.29-1.26A1,1,0,0,0,55.78,38.87Zm-32.72-.16c-2.37-1.44-4.54-2.18-5.44-2Zm9.06,2.93,0,.13a23.25,23.25,0,0,0,6.39,1.44Zm-9.94-1.92a11.3,11.3,0,0,0-5.63-1.42Zm6,4.38a10.35,10.35,0,0,0,5.34,2.07ZM15.94,42.48a24.19,24.19,0,0,0,5.44-.32A20.28,20.28,0,0,0,15.94,42.48Zm.56-1.87v.16l4.9.09A13.21,13.21,0,0,0,16.5,40.61Zm4.95,4,0-.13-4.69,1.29A12,12,0,0,0,21.45,44.59Zm5-8.8-3.72-2.95A8.76,8.76,0,0,0,26.46,35.79Zm-9.75,8.3a9.5,9.5,0,0,0,4.66-.8Zm7,3,.06.15a17.47,17.47,0,0,0,4.33-1.6l-.05-.14Zm19.73-5.4,4.39,1.21A7.38,7.38,0,0,0,43.48,41.69ZM30,46l-4.1,2.12A9.38,9.38,0,0,0,30,46ZM23.72,32.46l3,2.5A6.34,6.34,0,0,0,23.72,32.46Zm19.61,10.1,0,.2,3.9.89.06-.23Zm4.52,6.8-2.15,3A6.08,6.08,0,0,0,47.85,49.36ZM28.34,34.18A9,9,0,0,0,25.49,32l-.08.1ZM31,47l-.08-.18-2.91,2,.11.16ZM47.18,44.2l-3-.6A4.78,4.78,0,0,0,47.18,44.2ZM27.6,31.89,30,33.61A4.81,4.81,0,0,0,27.6,31.89ZM45,51.11l.12.1,1.49-1.84-.13-.1ZM27,44.89l-.06-.1L25,45.34l.06.17Zm18.72,4-.09-.11L44.46,50l.11.11Z"/><path class="cls-4" d="M47.55,46.13c-1.82.37-3.52.21-4.77-1.32-1.12-1.37-2.16-2.8-3.23-4.21a2.54,2.54,0,0,1-.18-.45c.63,0,1.19,0,1.74.07a25.52,25.52,0,0,1,6.29,1.31,3.56,3.56,0,0,1,2,1.5c-.9-.43-1.74-.86-2.59-1.25a7.43,7.43,0,0,0-3.4-.8,1.38,1.38,0,0,0-1.22,2.34,6.27,6.27,0,0,0,4.62,2.75Z"/><path class="cls-4" d="M27.75,38.17a33.55,33.55,0,0,1,12-2.8,26.65,26.65,0,0,1,10,1.12A44.85,44.85,0,0,0,27.75,38.17Z"/><path class="cls-4" d="M48.11,32.92c-6.94-.52-13.68.19-20,3.27L28,36.08c.67-.39,1.32-.84,2-1.16A31.73,31.73,0,0,1,41.1,32.39a33.07,33.07,0,0,1,6.82.36l.18,0Z"/><path class="cls-4" d="M48.94,38.71a60.75,60.75,0,0,0-18.2.93A35.91,35.91,0,0,1,48.94,38.71Z"/><path class="cls-4" d="M28.4,42.11c4.17,2.08,8.69,3.08,13.14,4.29C36.91,45.73,32.37,44.78,28.4,42.11Z"/><path class="cls-4" d="M55.78,38.87a1,1,0,0,1,1.33-.33.93.93,0,0,1,.29,1.26,1.35,1.35,0,0,1-1.61.33C55.38,39.87,55.38,39.48,55.78,38.87ZM57,39c-.44-.33-.72-.24-.85,0s0,.46.05.69a2.29,2.29,0,0,0,.81-.18C57.14,39.51,57,39.14,57,39Z"/><path class="cls-4" d="M23.06,38.71l-5.44-2C18.52,36.53,20.69,37.27,23.06,38.71Z"/><path class="cls-4" d="M32.12,41.64l6.36,1.57a23.25,23.25,0,0,1-6.39-1.44Z"/><path class="cls-4" d="M22.18,39.72,16.55,38.3A11.3,11.3,0,0,1,22.18,39.72Z"/><path class="cls-4" d="M28.15,44.1l5.34,2.07A10.35,10.35,0,0,1,28.15,44.1Z"/><path class="cls-4" d="M15.94,42.48a20.28,20.28,0,0,1,5.44-.32A24.19,24.19,0,0,1,15.94,42.48Z"/><path class="cls-4" d="M16.5,40.61a13.21,13.21,0,0,1,4.89.25l-4.9-.09Z"/><path class="cls-4" d="M21.45,44.59a12,12,0,0,1-4.73,1.16l4.69-1.29Z"/><path class="cls-4" d="M26.46,35.79a8.76,8.76,0,0,1-3.72-2.95Z"/><path class="cls-4" d="M16.71,44.09l4.66-.8A9.5,9.5,0,0,1,16.71,44.09Z"/><path class="cls-4" d="M23.75,47.09l4.34-1.59.05.14a17.47,17.47,0,0,1-4.33,1.6Z"/><path class="cls-4" d="M43.48,41.69a7.38,7.38,0,0,1,4.39,1.21Z"/><path class="cls-4" d="M30,46a9.38,9.38,0,0,1-4.1,2.12Z"/><path class="cls-4" d="M23.72,32.46a6.34,6.34,0,0,1,3,2.5Z"/><path class="cls-4" d="M43.33,42.56l3.91.86-.06.23-3.9-.89Z"/><path class="cls-4" d="M47.85,49.36a6.08,6.08,0,0,1-2.15,3Z"/><path class="cls-4" d="M28.34,34.18,25.41,32.1l.08-.1A9,9,0,0,1,28.34,34.18Z"/><path class="cls-4" d="M31,47,28.08,48.9,28,48.74l2.91-2Z"/><path class="cls-4" d="M47.18,44.2a4.78,4.78,0,0,1-3-.6Z"/><path class="cls-4" d="M27.6,31.89A4.81,4.81,0,0,1,30,33.61Z"/><path class="cls-4" d="M45,51.11l1.48-1.84.13.1-1.49,1.84Z"/><path class="cls-4" d="M27,44.89l-1.89.62L25,45.34l1.89-.55Z"/><path class="cls-4" d="M45.7,48.93l-1.13,1.2L44.46,50l1.15-1.2Z"/><path class="cls-4" d="M57,39c0,.12.1.49,0,.55a2.29,2.29,0,0,1-.81.18c0-.23-.13-.51-.05-.69S56.6,38.69,57,39Z"/></g></g></svg>