<svg xmlns="http://www.w3.org/2000/svg" viewBox="0 0 72.37 84.33"><defs><style>.cls-1{fill:#8d5210;}.cls-2{fill:#ffd57f;}.cls-3{fill:#e5a162;}.cls-4{fill:#8e5311;}</style></defs><g id="Layer_2" data-name="Layer 2"><g id="icon"><path class="cls-1" d="M1.92,28.93V59.24a8,8,0,0,0,4,6.94L32.18,81.33a8,8,0,0,0,8,0L66.44,66.18a8,8,0,0,0,4-6.94V28.93a8,8,0,0,0-4-6.93L40.19,6.84a8,8,0,0,0-8,0L5.93,22A8,8,0,0,0,1.92,28.93Z"/><path class="cls-1" d="M36.18,84.33a10,10,0,0,1-5-1.33L5,67.84a9.93,9.93,0,0,1-5-8.6V28.93a10,10,0,0,1,5-8.6L31.22,5.17a10,10,0,0,1,9.93,0L67.4,20.33a10,10,0,0,1,5,8.6V59.24a10,10,0,0,1-5,8.6L41.15,83A10,10,0,0,1,36.18,84.33Zm0-76.64a6,6,0,0,0-3,.82L6.89,23.66a6.1,6.1,0,0,0-3,5.27V59.24a6.09,6.09,0,0,0,3,5.27L33.14,79.67a6.11,6.11,0,0,0,6.08,0L65.48,64.51a6.11,6.11,0,0,0,3-5.27V28.93a6.12,6.12,0,0,0-3-5.27L39.22,8.51A6,6,0,0,0,36.18,7.69Z"/><path class="cls-2" d="M1.92,25.08V55.4a8,8,0,0,0,4,6.93L32.18,77.49a8,8,0,0,0,8,0L66.44,62.33a8,8,0,0,0,4-6.93V25.08a8,8,0,0,0-4-6.93L40.19,3a8,8,0,0,0-8,0L5.93,18.15A8,8,0,0,0,1.92,25.08Z"/><path class="cls-3" d="M36.18,80.48a9.87,9.87,0,0,1-5-1.33L5,64a10,10,0,0,1-5-8.6V25.08a10,10,0,0,1,5-8.6L31.22,1.33a10,10,0,0,1,9.93,0L67.4,16.48a10,10,0,0,1,5,8.6V55.4a10,10,0,0,1-5,8.6L41.15,79.15A9.88,9.88,0,0,1,36.18,80.48Zm0-76.63a6.1,6.1,0,0,0-3,.81L6.89,19.82a6.08,6.08,0,0,0-3,5.26V55.4a6.11,6.11,0,0,0,3,5.27L33.14,75.82a6.06,6.06,0,0,0,6.08,0L65.48,60.67a6.13,6.13,0,0,0,3-5.27V25.08a6.1,6.1,0,0,0-3-5.26L39.22,4.66A6.07,6.07,0,0,0,36.18,3.85Z"/><path class="cls-4" d="M36.09,17.72c2.77,2.49,4.51,4.88,3.29,8.7A7,7,0,0,1,36.49,30a.71.71,0,0,1-.65,0,6.71,6.71,0,0,1-1.61-10.18C34.83,19.12,35.45,18.44,36.09,17.72Z"/><path class="cls-4" d="M34.59,49.52C32.73,48.34,30.78,47.28,29,46a6,6,0,0,1-2.17-4.88c0-.86,0-1.72,0-2.78l1.33.76,3.16,1.84A6.78,6.78,0,0,1,34.86,47c0,.78,0,1.57,0,2.35Z"/><path class="cls-4" d="M26.86,49l1.64.93c1,.57,2,1.14,2.95,1.73a6.73,6.73,0,0,1,3.41,5.76c0,.87,0,1.73,0,2.65a1.51,1.51,0,0,1-.43,0c-1.56-.91-3.15-1.78-4.66-2.78a6.35,6.35,0,0,1-2.91-5.55C26.85,50.81,26.86,50,26.86,49Z"/><path class="cls-4" d="M27.11,27.74c1.74,1.05,3.54,2,5.19,3.19a6.39,6.39,0,0,1,2.56,5.3c0,.83,0,1.67,0,2.67l-1-.5c-1.41-.84-2.85-1.62-4.21-2.53a6.35,6.35,0,0,1-2.84-5.45c0-.86,0-1.72,0-2.58Z"/><path class="cls-4" d="M45.42,27.75c.21,2.87.27,5.71-2.22,7.66-1.69,1.31-3.62,2.3-5.49,3.48-.42-3.49-.34-6.34,3.1-8.52,1.4-.9,2.86-1.69,4.29-2.53A2.23,2.23,0,0,1,45.42,27.75Z"/><path class="cls-4" d="M37.66,49.41c-.36-3.6-.21-6.41,3.45-8.59L45,38.56a2.9,2.9,0,0,1,.41-.16c.39,3.74.07,6.65-3.77,8.79-1.15.64-2.27,1.33-3.4,2A4.38,4.38,0,0,1,37.66,49.41Z"/><path class="cls-4" d="M45.37,49c.4,3.82,0,6.78-3.86,8.91-1.27.7-2.52,1.46-3.79,2.2a7.16,7.16,0,0,1,3.21-8.51C42.39,50.7,43.87,49.86,45.37,49Z"/></g></g></svg>