<svg xmlns="http://www.w3.org/2000/svg" viewBox="0 0 72.37 84.04"><defs><style>.cls-1{fill:#8d5210;}.cls-2{fill:#ffd57f;}.cls-3{fill:#e4a15f;}.cls-4{fill:#8e5311;}</style></defs><g id="Layer_2" data-name="Layer 2"><g id="icon"><path class="cls-1" d="M1.92,28.64V59a8,8,0,0,0,4,6.94L32.18,81.05a8,8,0,0,0,8,0L66.44,65.89a8,8,0,0,0,4-6.94V28.64a8,8,0,0,0-4-6.93L40.19,6.55a8,8,0,0,0-8,0L5.93,21.71A8,8,0,0,0,1.92,28.64Z"/><path class="cls-1" d="M36.18,84a9.87,9.87,0,0,1-5-1.33L5,67.56A10,10,0,0,1,0,59V28.64A10,10,0,0,1,5,20L31.22,4.88a10,10,0,0,1,9.93,0L67.4,20a10,10,0,0,1,5,8.6V59a10,10,0,0,1-5,8.6L41.15,82.71A9.88,9.88,0,0,1,36.18,84Zm0-76.64a6,6,0,0,0-3,.82L6.89,23.37a6.1,6.1,0,0,0-3,5.27V59a6.08,6.08,0,0,0,3,5.26L33.14,79.38a6.11,6.11,0,0,0,6.08,0L65.48,64.22a6.1,6.1,0,0,0,3-5.26V28.64a6.12,6.12,0,0,0-3-5.27L39.22,8.22A6,6,0,0,0,36.18,7.4Z"/><path class="cls-2" d="M1.92,25.08V55.4a8,8,0,0,0,4,6.93L32.18,77.49a8,8,0,0,0,8,0L66.44,62.33a8,8,0,0,0,4-6.93V25.08a8,8,0,0,0-4-6.93L40.19,3a8,8,0,0,0-8,0L5.93,18.15A8,8,0,0,0,1.92,25.08Z"/><path class="cls-3" d="M36.18,80.48a9.87,9.87,0,0,1-5-1.33L5,64a10,10,0,0,1-5-8.6V25.08a10,10,0,0,1,5-8.6L31.22,1.33a10,10,0,0,1,9.93,0L67.4,16.48a10,10,0,0,1,5,8.6V55.4a10,10,0,0,1-5,8.6L41.15,79.15A9.88,9.88,0,0,1,36.18,80.48Zm0-76.63a6.1,6.1,0,0,0-3,.81L6.89,19.82a6.08,6.08,0,0,0-3,5.26V55.4a6.11,6.11,0,0,0,3,5.27L33.14,75.82a6.06,6.06,0,0,0,6.08,0L65.48,60.67a6.13,6.13,0,0,0,3-5.27V25.08a6.1,6.1,0,0,0-3-5.26L39.22,4.66A6.07,6.07,0,0,0,36.18,3.85Z"/><path class="cls-4" d="M29,44c.87.38,1.69.79,2.55,1.09a2.47,2.47,0,0,0,1.21,0,.88.88,0,0,0,.76-1.2,3.81,3.81,0,0,0-2-2.3c-.37-.22-.77-.36-1.23-.58L34.14,33c.79.48,1.51.94,2.25,1.35a2.33,2.33,0,0,0,1,.23c1.15.07,1.65-.65,1.19-1.71a5,5,0,0,0-2.27-2.33l-.57-.32a18,18,0,0,1,2.08-2.71A4.49,4.49,0,0,1,42,26.79c.69.16,1.35.4,2,.61-.16-2.52-.43-5.08.83-7.43l.18,0a2.34,2.34,0,0,1,.3.56c.21,1.3.39,2.6.58,3.9,0,.17,0,.34,0,.58.54-.66,1-1.28,1.54-1.87A10.2,10.2,0,0,1,48.78,22c.16-.13.44-.11.67-.16,0,.2.09.44,0,.6-.51,1.14-1.05,2.27-1.58,3.4-.12.24-.27.47-.43.73,1.15-.36,2.24-.73,3.34-1a8.26,8.26,0,0,1,1.56-.22.67.67,0,0,1,.54.23.64.64,0,0,1-.15.57,7.22,7.22,0,0,1-1.55,1.11c-1.37.62-2.77,1.14-4.16,1.7l-.47.18c.52.78,1.1,1.5,1.53,2.3a3.77,3.77,0,0,1,.2,3.61,10.21,10.21,0,0,1-1.09,1.7c-1.32,1.71-2.66,3.4-4,5.1,0,0-.1.08-.15.13a5.69,5.69,0,0,0-2.93-1.66l-.14,0c-.56-.05-1.14-.08-1.49.43a1.33,1.33,0,0,0,.13,1.53,5.65,5.65,0,0,0,2.43,2l-.27.35A141,141,0,0,1,28.87,56.46c-1.16,1-2.43,1.87-3.67,2.76a2.83,2.83,0,0,1-.94.25,2.6,2.6,0,0,1-.15-.94,34.08,34.08,0,0,1,.82-3.6A100.87,100.87,0,0,1,29,44C29,44,29,43.91,29,44Z"/></g></g></svg>